<svg width="105" height="101" viewBox="0 0 105 101" fill="none" xmlns="http://www.w3.org/2000/svg">
<g clip-path="url(#clip0)">
<path d="M52.5007 100.999C81.4955 100.999 105 78.3899 105 50.4997C105 22.6095 81.4955 0 52.5007 0C23.5059 0 0.000976562 22.6095 0.000976562 50.4997C0.000976562 78.3899 23.5059 100.999 52.5007 100.999Z" fill="#FF5B62"/>
<path d="M45.1825 49.2039C50.0603 49.2039 54.9381 49.2039 59.8155 49.2039L59.8954 50.1659L52.7444 60.594L45.0625 50.063L45.1823 49.2045L45.1825 49.2039Z" fill="#B3B3B3"/>
<path d="M45.2768 46.5881L45.1501 52.4704L34.7752 57.9276V77.9313H52.2405H69.7035V57.9274L60.0616 52.1627L59.532 46.2814L45.277 46.5879H45.2768V46.5881Z" fill="#F0BA7D"/>
<path d="M40.4827 29.4345C40.4827 29.4345 39.8878 28.1771 38.2906 28.8003C36.6931 29.4226 38.3624 35.6357 38.9729 36.5025C39.5828 37.3689 40.5649 36.8187 40.9226 36.7844C41.4312 40.4883 41.4765 43.0411 43.0179 44.6028C44.4778 46.0815 47.8202 49.0952 49.581 50.1462C50.7735 50.3885 51.6632 50.5307 52.5001 50.5733C53.3366 50.5307 54.2271 50.3881 55.4192 50.1462C57.1798 49.0958 60.5228 46.0815 61.9823 44.6028C63.5233 43.0411 63.569 40.4889 64.0776 36.7844C64.4353 36.8189 65.4174 37.3689 66.0273 36.5025C66.6376 35.6357 68.3071 29.4224 66.7096 28.8003C65.112 28.1769 64.5175 29.4345 64.5175 29.4345C64.5175 29.4345 66.0964 24.5555 63.2899 19.753C61.3667 16.4615 56.9803 14.7543 52.5003 14.6291C48.0204 14.7543 43.6339 16.4615 41.7107 19.753C38.9042 24.5557 40.4831 29.4345 40.4831 29.4345H40.4827Z" fill="#FED298"/>
<path d="M40.0623 54.2008L42.5468 53.2595L44.549 51.5289L51.6185 56.6864H53.3791L60.4508 51.5227L64.9367 54.2014L72.7319 66.9468L66.5584 99.1649C62.0834 100.359 57.3691 100.999 52.4987 100.999C48.5265 100.999 44.6585 100.572 40.9388 99.7685L29.8738 67.9651L40.0617 54.201L40.0623 54.2008Z" fill="#15BDB2"/>
<path d="M62.6695 52.5893L59.8154 49.2039L53.3799 56.6865L58.9039 62.5907L62.6695 52.5893Z" fill="#21D0C3"/>
<path d="M42.3249 52.5298L45.1827 49.2039L51.6187 56.6865L45.8752 62.53L42.3249 52.5298Z" fill="#21D0C3"/>
<path d="M42.3253 52.5298L23.4081 58.4472C22.6388 58.6872 22.1557 59.3165 21.999 60.0803L16.4362 87.1961C20.1824 90.6039 24.4507 93.4846 29.1128 95.72L31.8782 87.0385C31.9104 86.9389 32.0089 86.8768 32.1165 86.8892C32.2238 86.9014 32.3054 86.9841 32.3114 87.0884L32.7107 97.2847C38.8181 99.6785 45.4983 100.999 52.5005 100.999V97.614L42.3258 52.53L42.3253 52.5298Z" fill="white"/>
<path d="M42.3253 52.5298L40.1587 53.1701L34.4185 62.5913L41.665 62.8097L37.2162 65.2461L52.5007 97.6143L42.326 52.5302L42.3253 52.5298Z" fill="#EEF3F7"/>
<path d="M62.6695 52.5894L81.5925 58.4472C82.363 58.6857 82.8446 59.3165 83.0012 60.0803L88.5642 87.1965C84.8176 90.6043 80.5491 93.4852 75.8869 95.7208L73.121 87.0389C73.0892 86.9393 72.9897 86.8771 72.8827 86.8896C72.7754 86.9018 72.6946 86.9849 72.6882 87.0888L72.29 97.2851C66.1825 99.6789 59.5023 101 52.5005 101H52.5001V97.6143L62.6693 52.5899L62.6695 52.5894Z" fill="#EEF3F7"/>
<path d="M62.6695 52.5894L63.8723 52.9413L70.5769 62.6507L63.3305 62.8695L67.7797 65.3061L52.5001 97.6143L62.6693 52.5899V52.5896H62.6695V52.5894Z" fill="white"/>
<path d="M54.6442 97.4025C54.0062 97.4025 53.489 97.8988 53.489 98.5103C53.489 99.1228 54.0066 99.6189 54.6442 99.6189C55.2818 99.6189 55.7994 99.1226 55.7994 98.5103C55.7994 97.8984 55.2818 97.4025 54.6442 97.4025Z" fill="#D9DADA"/>
<path d="M63.139 30.8871L64.2521 30.8496L64.6104 29.6278L65.659 28.6213C66.3515 23.6052 66.5556 15.7984 61.3796 16.0237C61.3796 16.0237 60.9128 10.3314 51.5766 11.4472C42.2398 12.5633 38.0213 18.3609 38.524 23.1979C39.0262 28.0349 38.8238 28.6207 38.8238 28.6207L39.8724 29.6276L40.0305 31.0175L40.9462 30.9619C40.9462 30.9619 41.2333 29.1015 41.5206 28.2832C41.8081 27.4652 41.7181 25.8089 41.7181 25.8089C41.7181 25.8089 52.746 26.4847 55.7262 22.8383C57.5668 20.5865 61.7939 16.6848 62.0067 22.0883C62.0699 23.6907 61.4506 26.0924 62.6357 27.8404C63.8213 29.5885 63.1386 30.8867 63.1386 30.8867H63.139V30.8871Z" fill="#666666"/>
<path d="M52.5001 97.6139L55.4811 84.4161L53.4554 58.4006L54.5591 57.9475L53.3793 56.6868H51.6187L50.4087 57.9181L51.5444 58.4008L49.5693 84.6267L52.5003 97.6141L52.5001 97.6139Z" fill="#0F7986"/>
<path d="M54.5415 97.4025C53.9605 97.4025 53.4888 97.8542 53.4888 98.4115C53.4888 98.9694 53.9603 99.4215 54.5415 99.4215C55.122 99.4215 55.5941 98.9696 55.5941 98.4115C55.5941 97.8544 55.122 97.4025 54.5415 97.4025Z" fill="white"/>
<path d="M71.0382 80.6948C68.9894 80.3545 67.6154 78.4809 67.9688 76.5108C68.3225 74.5405 70.2704 73.2179 72.3185 73.5579C74.3672 73.8982 75.7413 75.7723 75.3879 77.7429C75.0342 79.713 73.0863 81.0353 71.0378 80.695L71.0382 80.6948Z" fill="#FEFEFE"/>
<path d="M71.0753 80.4869C69.1459 80.1663 67.8519 78.4028 68.1851 76.5463C68.5184 74.6902 70.3524 73.4453 72.2822 73.7655C74.2116 74.086 75.5056 75.8506 75.1724 77.7064C74.8391 79.5629 73.0051 80.8071 71.0753 80.4865V80.4869Z" fill="#0F7986"/>
<path d="M71.3448 78.9863C70.2775 78.8094 69.5614 77.8323 69.7454 76.8055C69.9293 75.7786 70.9451 75.0901 72.0121 75.267C73.0797 75.4444 73.7959 76.4201 73.6115 77.4474C73.4275 78.474 72.4122 79.1629 71.3448 78.9859V78.9863Z" fill="#EBECEC"/>
<path d="M71.5755 75.4694L72.4374 75.6127L72.9009 73.0305L72.039 72.8872L71.5755 75.4694Z" fill="#FEFEFE"/>
<path d="M42.7055 81.4111L44.3207 81.1027C45.0071 80.9714 45.5754 80.5829 45.9382 80.0614C46.2999 79.5398 46.4572 78.8863 46.3207 78.2258L44.421 69.02C43.7039 65.5462 40.8787 63.7747 37.6504 63.382C36.4133 63.2314 35.1164 63.2863 33.8599 63.5256C32.6023 63.7648 31.3834 64.1902 30.3003 64.7833C27.4797 66.3287 25.5788 69.0005 26.2968 72.4799L28.1964 81.6861C28.333 82.3463 28.7376 82.8925 29.2795 83.2415L29.2809 83.2411C29.8231 83.5901 30.5017 83.7404 31.1881 83.6094L32.8025 83.3011L32.6704 82.6607L31.0556 82.9691C30.5524 83.0651 30.0538 82.9543 29.6566 82.6994L29.657 82.699C29.2596 82.443 28.9626 82.0423 28.8625 81.5586L26.9629 72.3524C26.3114 69.1952 28.0531 66.7617 30.634 65.3487C31.6541 64.7894 32.8043 64.3884 33.9918 64.1617C35.1792 63.9355 36.4018 63.8844 37.5671 64.026C40.5221 64.3852 43.1061 65.9949 43.7559 69.1461L45.656 78.3523C45.7555 78.836 45.6402 79.3151 45.3748 79.698C45.1086 80.0799 44.6921 80.3656 44.1887 80.4612L42.5735 80.7696L42.7055 81.4099V81.4109V81.4109V81.4111Z" fill="#21D0C3"/>
<path d="M44.9335 70.3843L44.6433 68.9782C43.9044 65.3966 40.9977 63.5711 37.6787 63.1669C36.4176 63.0139 35.0969 63.0687 33.8168 63.3131C32.5367 63.5567 31.2942 63.9907 30.1906 64.5948C27.2896 66.1839 25.3356 68.935 26.0759 72.5229L26.3665 73.929L27.4752 73.7167L27.185 72.3106C26.556 69.2613 28.2448 66.9069 30.7454 65.5373C31.7449 64.9901 32.872 64.5973 34.0363 64.3752C35.2001 64.1529 36.3988 64.103 37.5404 64.2417C40.4035 64.5896 42.9067 66.1453 43.5353 69.1895L43.8255 70.5956L44.9345 70.3837L44.9335 70.3843Z" fill="#4D4D4D"/>
<path d="M31.5214 83.6872L32.3856 83.522C32.6026 83.7562 32.9383 83.8763 33.2803 83.8112C33.7945 83.713 34.1285 83.2329 34.0264 82.7379C33.9247 82.2438 33.4251 81.9224 32.911 82.0207C32.5681 82.0858 32.306 82.3207 32.199 82.6166L31.3354 82.7813L31.522 83.6868L31.5214 83.6872Z" fill="#076673"/>
<path d="M43.3922 81.4208L42.529 81.5859C42.4217 81.8816 42.1596 82.1161 41.8174 82.1818C41.3032 82.2797 40.8041 81.9587 40.7019 81.4638C40.6002 80.9696 40.9339 80.4891 41.4476 80.3912C41.7899 80.3261 42.126 80.4469 42.3419 80.6804L43.2055 80.5153L43.3922 81.4208Z" fill="#076673"/>
<path d="M34.342 63.2301L34.0125 61.633L33.3573 61.7583L32.7029 61.8831L33.0361 63.496C33.2857 63.4259 33.5383 63.3664 33.7935 63.3177C33.9754 63.2827 34.1579 63.2541 34.342 63.2301Z" fill="#666666"/>
<path d="M32.9286 82.7985C33.0841 82.7689 33.1852 82.6229 33.1542 82.474C33.1235 82.3242 32.9729 82.2268 32.8169 82.2564C32.6612 82.286 32.5603 82.4316 32.5913 82.5809C32.6222 82.7302 32.773 82.828 32.9286 82.7979V82.7985Z" fill="#0F7986"/>
<path d="M41.4708 81.1643C41.626 81.1347 41.7267 80.9891 41.696 80.8402C41.6652 80.6901 41.5147 80.593 41.3586 80.6226C41.2029 80.6522 41.102 80.7978 41.133 80.9475C41.1634 81.0971 41.3147 81.1941 41.4708 81.1643Z" fill="#0F7986"/>
<path d="M71.24 78.969C70.2304 78.8015 69.5534 77.8781 69.7273 76.9063C69.9014 75.9356 70.8608 75.284 71.8706 75.4519C72.8802 75.6194 73.5576 76.5428 73.3833 77.5135C73.2087 78.4847 72.2488 79.1362 71.2396 78.969H71.24Z" fill="#FEFEFE"/>
<path d="M42.3346 53.0087C42.3057 53.0091 32.1094 53.0904 33.8316 61.6711L32.8833 61.8455C30.9418 52.1719 42.2911 52.0828 42.3233 52.0824L42.3346 53.0087Z" fill="#4D4D4D"/>
<path d="M62.6808 52.1262C64.3444 52.1694 67.56 52.6055 70.0353 55.5016C72.4575 58.3357 74.1556 63.5406 72.8859 73.0835L71.93 72.9673C73.1591 63.7309 71.571 58.7578 69.2917 56.0904C67.0648 53.4843 64.1611 53.0916 62.6589 53.0527L62.6814 52.1262H62.6808Z" fill="#4D4D4D"/>
</g>
<defs>
<clipPath id="clip0">
<rect width="105" height="101" fill="white"/>
</clipPath>
</defs>
</svg>
